<mxfile host="app.diagrams.net" modified="2024-05-14T10:00:18.213Z" agent="Mozilla/5.0 (Macintosh; Intel Mac OS X 10_15_7) AppleWebKit/537.36 (KHTML, like Gecko) Chrome/124.0.0.0 Safari/537.36" etag="5PaEK4NLzxcIXEVJn3y9" version="24.4.0" type="github">
  <diagram name="Page-1" id="FGH43-w178OHrqDjw62R">
    <mxGraphModel dx="1114" dy="730" grid="1" gridSize="10" guides="1" tooltips="1" connect="1" arrows="1" fold="1" page="1" pageScale="1" pageWidth="827" pageHeight="1169" math="0" shadow="0">
      <root>
        <mxCell id="0" />
        <mxCell id="1" parent="0" />
        <mxCell id="-6bIMQbb5kdi5gnjyBUH-1" value="&lt;ul&gt;&lt;li&gt;Home&lt;/li&gt;&lt;li&gt;About&lt;/li&gt;&lt;li&gt;Contact&lt;/li&gt;&lt;li&gt;Services&lt;/li&gt;&lt;/ul&gt;" style="rounded=0;whiteSpace=wrap;html=1;" vertex="1" parent="1">
          <mxGeometry x="50" y="180" width="120" height="60" as="geometry" />
        </mxCell>
        <mxCell id="-6bIMQbb5kdi5gnjyBUH-4" value="" style="edgeStyle=orthogonalEdgeStyle;rounded=0;orthogonalLoop=1;jettySize=auto;html=1;" edge="1" parent="1" source="-6bIMQbb5kdi5gnjyBUH-2" target="-6bIMQbb5kdi5gnjyBUH-3">
          <mxGeometry relative="1" as="geometry" />
        </mxCell>
        <mxCell id="-6bIMQbb5kdi5gnjyBUH-6" value="" style="edgeStyle=orthogonalEdgeStyle;rounded=0;orthogonalLoop=1;jettySize=auto;html=1;" edge="1" parent="1" source="-6bIMQbb5kdi5gnjyBUH-2" target="-6bIMQbb5kdi5gnjyBUH-5">
          <mxGeometry relative="1" as="geometry" />
        </mxCell>
        <mxCell id="-6bIMQbb5kdi5gnjyBUH-8" value="" style="edgeStyle=orthogonalEdgeStyle;rounded=0;orthogonalLoop=1;jettySize=auto;html=1;" edge="1" parent="1" source="-6bIMQbb5kdi5gnjyBUH-2" target="-6bIMQbb5kdi5gnjyBUH-7">
          <mxGeometry relative="1" as="geometry" />
        </mxCell>
        <mxCell id="-6bIMQbb5kdi5gnjyBUH-2" value="Home" style="rounded=0;whiteSpace=wrap;html=1;" vertex="1" parent="1">
          <mxGeometry x="360" y="20" width="120" height="60" as="geometry" />
        </mxCell>
        <mxCell id="-6bIMQbb5kdi5gnjyBUH-3" value="Contact" style="rounded=0;whiteSpace=wrap;html=1;" vertex="1" parent="1">
          <mxGeometry x="360" y="120" width="120" height="60" as="geometry" />
        </mxCell>
        <mxCell id="-6bIMQbb5kdi5gnjyBUH-5" value="About" style="whiteSpace=wrap;html=1;rounded=0;" vertex="1" parent="1">
          <mxGeometry x="200" y="120" width="120" height="60" as="geometry" />
        </mxCell>
        <mxCell id="-6bIMQbb5kdi5gnjyBUH-10" value="" style="edgeStyle=orthogonalEdgeStyle;rounded=0;orthogonalLoop=1;jettySize=auto;html=1;" edge="1" parent="1" source="-6bIMQbb5kdi5gnjyBUH-7" target="-6bIMQbb5kdi5gnjyBUH-9">
          <mxGeometry relative="1" as="geometry" />
        </mxCell>
        <mxCell id="-6bIMQbb5kdi5gnjyBUH-14" value="" style="edgeStyle=orthogonalEdgeStyle;rounded=0;orthogonalLoop=1;jettySize=auto;html=1;" edge="1" parent="1" source="-6bIMQbb5kdi5gnjyBUH-7" target="-6bIMQbb5kdi5gnjyBUH-13">
          <mxGeometry relative="1" as="geometry" />
        </mxCell>
        <mxCell id="-6bIMQbb5kdi5gnjyBUH-7" value="Services" style="rounded=0;whiteSpace=wrap;html=1;" vertex="1" parent="1">
          <mxGeometry x="520" y="120" width="120" height="60" as="geometry" />
        </mxCell>
        <mxCell id="-6bIMQbb5kdi5gnjyBUH-9" value="Web Development" style="rounded=0;whiteSpace=wrap;html=1;" vertex="1" parent="1">
          <mxGeometry x="600" y="240" width="120" height="60" as="geometry" />
        </mxCell>
        <mxCell id="-6bIMQbb5kdi5gnjyBUH-13" value="Web Design" style="rounded=0;whiteSpace=wrap;html=1;" vertex="1" parent="1">
          <mxGeometry x="440" y="240" width="120" height="60" as="geometry" />
        </mxCell>
      </root>
    </mxGraphModel>
  </diagram>
</mxfile>
